<?xml version="1.0" encoding="utf-8"?>
<!-- Generator: Adobe Illustrator 21.0.0, SVG Export Plug-In . SVG Version: 6.00 Build 0)  -->
<svg version="1.1" id="Layer_3" xmlns="http://www.w3.org/2000/svg" xmlns:xlink="http://www.w3.org/1999/xlink" x="0px" y="0px"
	 viewBox="0 0 276 209" style="enable-background:new 0 0 276 209;" xml:space="preserve">
<style type="text/css">
	.st0{fill:#FFFFFF;}
</style>
<path class="st0" d="M506.2,89c-1.2-0.3-2.5-0.5-3.7-0.7l0.7-7.1l-26-8.9l-25.9,9.1l0.9,9.3c-0.9-0.2-1.7-0.4-2.7-0.6l-3.7-1
	l2.2,18.4c0,0,0,0,0,0l1.4,11.5c0.2,2,1.7,4.1,3.4,5l21.3,11.7c0.9,0.5,2,0.7,3,0.7c1.1,0,2.2-0.2,3.1-0.7l21.4-11.9
	c1.7-1,3.1-3.1,3.4-5l1.4-11.3c0,0,0,0,0,0l2.2-17.9L506.2,89z M456.4,91.4l-0.7-7.3l21.5-7.6l21.6,7.4l-0.4,3.7
	c-8.7-1-14.6,0.3-20.3,1.9l-1,0.3C471.3,91.4,465.7,92.9,456.4,91.4z M487,100.4c0,1.9-1.5,3.4-3.4,3.4h-10.8
	c-1.9,0-3.4-1.5-3.4-3.4c0-1.9,1.5-3.4,3.4-3.4h10.8C485.5,97,487,98.5,487,100.4z M476.9,126.5h-4.1c-1.9,0-3.4-1.5-3.4-3.4
	c0-1.9,1.5-3.4,3.4-3.4h4.1c1.9,0,3.4,1.5,3.4,3.4C480.3,125,478.8,126.5,476.9,126.5z M495.5,115.1h-17.6c-1.9,0-3.4-1.5-3.4-3.4
	c0-1.9,1.5-3.4,3.4-3.4h17.6c1.9,0,3.4,1.5,3.4,3.4C498.9,113.6,497.4,115.1,495.5,115.1z"/>
<path class="st0" d="M1046.8,93.2c-0.9-0.2-1.8-0.4-2.7-0.5l0.5-5.2l-18.9-6.5l-18.8,6.6l0.7,6.7c-0.6-0.1-1.3-0.3-1.9-0.5l-2.7-0.7
	l1.6,13.4c0,0,0,0,0,0l1,8.3c0.2,1.4,1.2,2.9,2.5,3.6l15.5,8.5c0.6,0.4,1.4,0.5,2.2,0.5c0.8,0,1.6-0.2,2.2-0.5l15.6-8.6
	c1.2-0.7,2.3-2.2,2.4-3.6l1-8.2c0,0,0,0,0,0l1.6-13L1046.8,93.2z M1010.6,94.9l-0.5-5.3l15.6-5.5l15.7,5.4l-0.3,2.7
	c-6.3-0.7-10.6,0.2-14.8,1.4l-0.7,0.2C1021.5,94.9,1017.4,96,1010.6,94.9z M1032.9,101.4c0,1.4-1.1,2.5-2.5,2.5h-7.9
	c-1.4,0-2.5-1.1-2.5-2.5c0-1.4,1.1-2.5,2.5-2.5h7.9C1031.8,98.9,1032.9,100.1,1032.9,101.4z M1025.6,120.4h-3
	c-1.4,0-2.5-1.1-2.5-2.5c0-1.4,1.1-2.5,2.5-2.5h3c1.4,0,2.5,1.1,2.5,2.5C1028,119.3,1026.9,120.4,1025.6,120.4z M1039.1,112.2h-12.8
	c-1.4,0-2.5-1.1-2.5-2.5c0-1.4,1.1-2.5,2.5-2.5h12.8c1.4,0,2.5,1.1,2.5,2.5C1041.5,111,1040.4,112.2,1039.1,112.2z"/>
<g>
	<path class="st0" d="M541,113.9h-11.1l-2.1,6.4H521l11.5-30.8h5.9l11.5,30.8h-6.8L541,113.9z M531.6,108.8h7.7l-3.9-11.5
		L531.6,108.8z"/>
	<path class="st0" d="M557,97.4l0.2,2.6c1.6-2,3.8-3.1,6.6-3.1c2.4,0,4.2,0.7,5.4,2.1c1.2,1.4,1.8,3.6,1.8,6.4v14.8h-6.1v-14.7
		c0-1.3-0.3-2.2-0.8-2.8c-0.6-0.6-1.5-0.9-2.8-0.9c-1.7,0-3,0.7-3.9,2.2v16.2h-6.1V97.4H557z"/>
	<path class="st0" d="M574.8,108.6c0-3.5,0.8-6.3,2.5-8.5c1.7-2.1,3.9-3.2,6.8-3.2c2.5,0,4.5,0.9,5.9,2.6l0.3-2.2h5.5v22.2
		c0,2-0.5,3.7-1.4,5.2c-0.9,1.5-2.2,2.6-3.8,3.4c-1.7,0.8-3.6,1.2-5.8,1.2c-1.7,0-3.3-0.3-4.9-1c-1.6-0.7-2.8-1.5-3.6-2.6l2.7-3.7
		c1.5,1.7,3.4,2.6,5.5,2.6c1.6,0,2.9-0.4,3.8-1.3c0.9-0.9,1.4-2.1,1.4-3.7v-1.2c-1.4,1.6-3.3,2.4-5.6,2.4c-2.8,0-5-1.1-6.7-3.2
		s-2.6-5-2.6-8.6V108.6z M580.9,109.1c0,2.1,0.4,3.7,1.2,4.9c0.8,1.2,2,1.8,3.4,1.8c1.9,0,3.2-0.7,4-2.1V104c-0.8-1.4-2.1-2.1-4-2.1
		c-1.5,0-2.6,0.6-3.5,1.8C581.3,104.9,580.9,106.7,580.9,109.1z"/>
	<path class="st0" d="M614.2,117.9c-1.5,1.8-3.6,2.8-6.3,2.8c-2.5,0-4.3-0.7-5.6-2.1c-1.3-1.4-2-3.5-2-6.2v-15h6.1v14.8
		c0,2.4,1.1,3.6,3.3,3.6c2.1,0,3.5-0.7,4.3-2.2V97.4h6.1v22.9h-5.8L614.2,117.9z"/>
	<path class="st0" d="M631.2,120.3H625V87.7h6.1V120.3z"/>
	<path class="st0" d="M649.5,120.3c-0.3-0.6-0.5-1.2-0.6-2.1c-1.5,1.7-3.4,2.5-5.8,2.5c-2.2,0-4.1-0.6-5.6-1.9
		c-1.5-1.3-2.2-2.9-2.2-4.9c0-2.4,0.9-4.3,2.7-5.6c1.8-1.3,4.4-2,7.8-2h2.8V105c0-1.1-0.3-1.9-0.8-2.5c-0.5-0.6-1.4-1-2.6-1
		c-1,0-1.8,0.2-2.4,0.7c-0.6,0.5-0.9,1.2-0.9,2h-6.1c0-1.3,0.4-2.6,1.2-3.7c0.8-1.1,2-2,3.5-2.7c1.5-0.6,3.2-1,5-1
		c2.8,0,5.1,0.7,6.7,2.1s2.5,3.4,2.5,6v9.9c0,2.2,0.3,3.8,0.9,4.9v0.4H649.5z M644.4,116c0.9,0,1.7-0.2,2.5-0.6
		c0.8-0.4,1.3-0.9,1.7-1.6v-3.9h-2.3c-3.1,0-4.7,1.1-4.9,3.2l0,0.4c0,0.8,0.3,1.4,0.8,1.9C642.8,115.8,643.5,116,644.4,116z"/>
	<path class="st0" d="M672.3,103.1c-0.8-0.1-1.6-0.2-2.2-0.2c-2.3,0-3.8,0.8-4.6,2.4v15h-6.1V97.4h5.8l0.2,2.7
		c1.2-2.1,2.9-3.2,5.1-3.2c0.7,0,1.3,0.1,1.9,0.3L672.3,103.1z"/>
	<path class="st0" d="M693.2,120.3h-6.4V89.4h6.4V120.3z"/>
	<path class="st0" d="M704.4,97.4l0.2,2.6c1.6-2,3.8-3.1,6.6-3.1c2.4,0,4.2,0.7,5.4,2.1c1.2,1.4,1.8,3.6,1.8,6.4v14.8h-6.1v-14.7
		c0-1.3-0.3-2.2-0.8-2.8s-1.5-0.9-2.8-0.9c-1.7,0-3,0.7-3.9,2.2v16.2h-6.1V97.4H704.4z"/>
	<path class="st0" d="M734.2,120.3V89.4h9.5c2.7,0,5.1,0.6,7.3,1.8c2.1,1.2,3.8,3,5,5.2c1.2,2.3,1.8,4.8,1.8,7.7v1.4
		c0,2.9-0.6,5.4-1.8,7.6c-1.2,2.2-2.8,4-5,5.2s-4.6,1.9-7.3,1.9H734.2z M740.6,94.6v20.6h3.1c2.5,0,4.4-0.8,5.7-2.4
		c1.3-1.6,2-3.9,2-7v-1.6c0-3.1-0.7-5.5-1.9-7.1s-3.2-2.4-5.7-2.4H740.6z"/>
	<path class="st0" d="M772.6,120.7c-3.4,0-6.1-1-8.2-3.1c-2.1-2.1-3.2-4.8-3.2-8.2v-0.6c0-2.3,0.4-4.4,1.3-6.2s2.1-3.2,3.8-4.2
		c1.6-1,3.5-1.5,5.6-1.5c3.1,0,5.6,1,7.4,3c1.8,2,2.7,4.8,2.7,8.4v2.5h-14.6c0.2,1.5,0.8,2.7,1.8,3.6c1,0.9,2.3,1.4,3.8,1.4
		c2.4,0,4.2-0.9,5.5-2.6l3,3.4c-0.9,1.3-2.2,2.3-3.7,3C776.2,120.3,774.5,120.7,772.6,120.7z M771.9,101.9c-1.2,0-2.2,0.4-3,1.2
		c-0.8,0.8-1.2,2-1.5,3.5h8.5v-0.5c0-1.4-0.4-2.4-1.1-3.2S773.2,101.9,771.9,101.9z"/>
	<path class="st0" d="M806.1,109c0,3.5-0.8,6.4-2.4,8.5c-1.6,2.1-3.8,3.2-6.5,3.2c-2.3,0-4.2-0.8-5.6-2.4v10.8h-6.1V97.4h5.7
		l0.2,2.2c1.5-1.8,3.4-2.7,5.8-2.7c2.8,0,5,1,6.6,3.1c1.6,2.1,2.4,5,2.4,8.6V109z M800,108.6c0-2.1-0.4-3.8-1.1-5
		c-0.8-1.2-1.9-1.7-3.3-1.7c-1.9,0-3.2,0.7-4,2.2v9.4c0.7,1.5,2.1,2.3,4,2.3C798.5,115.8,800,113.4,800,108.6z"/>
	<path class="st0" d="M817.2,91.7v5.6h3.9v4.5h-3.9v11.4c0,0.8,0.2,1.5,0.5,1.8c0.3,0.4,0.9,0.6,1.9,0.6c0.7,0,1.3,0,1.8-0.1v4.6
		c-1.2,0.4-2.4,0.6-3.7,0.6c-4.3,0-6.5-2.2-6.6-6.5v-12.3h-3.3v-4.5h3.3v-5.6H817.2z"/>
	<path class="st0" d="M830.5,99.9c1.6-1.9,3.7-2.9,6.1-2.9c5,0,7.5,2.9,7.6,8.7v14.7h-6.1v-14.5c0-1.3-0.3-2.3-0.8-2.9
		c-0.6-0.6-1.5-0.9-2.8-0.9c-1.8,0-3.1,0.7-3.9,2.1v16.3h-6.1V87.7h6.1V99.9z"/>
</g>
<path class="st0" d="M181.8,57.9c-1.9-0.4-3.7-0.8-5.5-1.1l1-10.7L138,32.7L99,46.4l1.4,14c-1.3-0.3-2.6-0.6-4-1l-5.6-1.5l3.4,27.8
	c0,0,0,0,0,0l2.1,17.3c0.4,2.9,2.5,6.1,5.1,7.5l32.1,17.6c1.3,0.7,3,1.1,4.6,1.1c1.6,0,3.3-0.4,4.6-1.1l32.3-17.9
	c2.6-1.4,4.7-4.6,5.1-7.5l2-17c0,0,0,0,0,0l3.3-27L181.8,57.9z M106.7,61.6l-1.1-11L138,39.3l32.6,11.2l-0.5,5.5
	c-13.1-1.4-22,0.5-30.6,2.8l-1.5,0.4C129.1,61.6,120.7,63.8,106.7,61.6z M152.9,75.1c0,2.8-2.3,5.1-5.1,5.1h-16.4
	c-2.8,0-5.1-2.3-5.1-5.1c0-2.8,2.3-5.1,5.1-5.1h16.4C150.6,70,152.9,72.3,152.9,75.1z M137.6,114.5h-6.2c-2.8,0-5.1-2.3-5.1-5.1
	c0-2.8,2.3-5.1,5.1-5.1h6.2c2.8,0,5.1,2.3,5.1,5.1C142.8,112.2,140.5,114.5,137.6,114.5z M165.7,97.4h-26.5c-2.8,0-5.1-2.3-5.1-5.1
	s2.3-5.1,5.1-5.1h26.5c2.8,0,5.1,2.3,5.1,5.1S168.5,97.4,165.7,97.4z"/>
<g>
	<path class="st0" d="M47.9,166.6h-7l-1.3,4h-4.3l7.3-19.5h3.7l7.3,19.5h-4.3L47.9,166.6z M41.9,163.3h4.9l-2.4-7.3L41.9,163.3z"/>
	<path class="st0" d="M58,156.1l0.1,1.7c1-1.3,2.4-1.9,4.2-1.9c1.5,0,2.7,0.5,3.4,1.4c0.7,0.9,1.1,2.2,1.2,4v9.4H63v-9.3
		c0-0.8-0.2-1.4-0.5-1.8c-0.4-0.4-1-0.6-1.8-0.6c-1.1,0-1.9,0.5-2.5,1.4v10.2h-3.9v-14.5H58z"/>
	<path class="st0" d="M69.2,163.3c0-2.2,0.5-4,1.6-5.4c1.1-1.4,2.5-2,4.3-2c1.6,0,2.8,0.5,3.7,1.6l0.2-1.4h3.5v14
		c0,1.3-0.3,2.4-0.9,3.3c-0.6,0.9-1.4,1.7-2.4,2.1c-1,0.5-2.3,0.7-3.7,0.7c-1.1,0-2.1-0.2-3.1-0.6c-1-0.4-1.8-1-2.3-1.6l1.7-2.4
		c1,1.1,2.1,1.6,3.5,1.6c1,0,1.8-0.3,2.4-0.8s0.9-1.3,0.9-2.3v-0.8c-0.9,1-2.1,1.5-3.5,1.5c-1.7,0-3.1-0.7-4.2-2
		c-1.1-1.4-1.6-3.2-1.6-5.4V163.3z M73.1,163.5c0,1.3,0.3,2.4,0.8,3.1c0.5,0.7,1.2,1.1,2.2,1.1c1.2,0,2-0.4,2.5-1.3v-6.1
		c-0.5-0.9-1.4-1.3-2.5-1.3c-0.9,0-1.7,0.4-2.2,1.1C73.3,160.9,73.1,162,73.1,163.5z"/>
	<path class="st0" d="M94.1,169.1c-1,1.2-2.3,1.7-4,1.7c-1.6,0-2.7-0.4-3.6-1.3c-0.8-0.9-1.2-2.2-1.3-3.9v-9.5h3.9v9.4
		c0,1.5,0.7,2.3,2.1,2.3c1.3,0,2.2-0.5,2.7-1.4v-10.3h3.9v14.5h-3.6L94.1,169.1z"/>
	<path class="st0" d="M104.8,170.6h-3.9V150h3.9V170.6z"/>
	<path class="st0" d="M116.4,170.6c-0.2-0.3-0.3-0.8-0.4-1.3c-0.9,1-2.2,1.6-3.7,1.6c-1.4,0-2.6-0.4-3.5-1.2s-1.4-1.9-1.4-3.1
		c0-1.5,0.6-2.7,1.7-3.5s2.8-1.2,4.9-1.2h1.8v-0.8c0-0.7-0.2-1.2-0.5-1.6c-0.3-0.4-0.9-0.6-1.6-0.6c-0.7,0-1.2,0.2-1.5,0.5
		s-0.6,0.7-0.6,1.3h-3.9c0-0.8,0.3-1.6,0.8-2.3c0.5-0.7,1.3-1.3,2.2-1.7c0.9-0.4,2-0.6,3.2-0.6c1.8,0,3.2,0.4,4.3,1.3
		s1.6,2.2,1.6,3.8v6.3c0,1.4,0.2,2.4,0.6,3.1v0.2H116.4z M113.2,167.9c0.6,0,1.1-0.1,1.6-0.4c0.5-0.3,0.8-0.6,1.1-1V164h-1.4
		c-1.9,0-3,0.7-3.1,2l0,0.2c0,0.5,0.2,0.9,0.5,1.2C112.2,167.8,112.6,167.9,113.2,167.9z"/>
	<path class="st0" d="M130.9,159.7c-0.5-0.1-1-0.1-1.4-0.1c-1.5,0-2.4,0.5-2.9,1.5v9.5h-3.9v-14.5h3.7l0.1,1.7c0.8-1.3,1.9-2,3.2-2
		c0.4,0,0.8,0.1,1.2,0.2L130.9,159.7z"/>
	<path class="st0" d="M144.1,170.6h-4v-19.5h4V170.6z"/>
	<path class="st0" d="M151.1,156.1l0.1,1.7c1-1.3,2.4-1.9,4.2-1.9c1.5,0,2.7,0.5,3.4,1.4c0.7,0.9,1.1,2.2,1.2,4v9.4h-3.9v-9.3
		c0-0.8-0.2-1.4-0.5-1.8c-0.4-0.4-1-0.6-1.8-0.6c-1.1,0-1.9,0.5-2.5,1.4v10.2h-3.9v-14.5H151.1z"/>
	<path class="st0" d="M170,170.6v-19.5h6c1.7,0,3.2,0.4,4.6,1.2c1.4,0.8,2.4,1.9,3.2,3.3c0.8,1.4,1.1,3,1.1,4.9v0.9
		c0,1.8-0.4,3.4-1.1,4.8s-1.8,2.5-3.2,3.3s-2.9,1.2-4.6,1.2H170z M174,154.4v13h1.9c1.6,0,2.8-0.5,3.6-1.5c0.8-1,1.3-2.5,1.3-4.4v-1
		c0-2-0.4-3.5-1.2-4.5s-2-1.5-3.6-1.5H174z"/>
	<path class="st0" d="M194.2,170.9c-2.1,0-3.9-0.7-5.2-2c-1.3-1.3-2-3-2-5.2v-0.4c0-1.5,0.3-2.8,0.8-3.9c0.6-1.1,1.4-2,2.4-2.7
		c1-0.6,2.2-0.9,3.5-0.9c2,0,3.5,0.6,4.7,1.9s1.7,3,1.7,5.3v1.6h-9.2c0.1,0.9,0.5,1.7,1.1,2.3c0.6,0.6,1.4,0.9,2.4,0.9
		c1.5,0,2.7-0.5,3.5-1.6l1.9,2.1c-0.6,0.8-1.4,1.5-2.4,1.9C196.5,170.6,195.4,170.9,194.2,170.9z M193.8,159c-0.8,0-1.4,0.3-1.9,0.8
		s-0.8,1.3-0.9,2.2h5.4v-0.3c0-0.9-0.3-1.5-0.7-2S194.6,159,193.8,159z"/>
	<path class="st0" d="M215.4,163.5c0,2.2-0.5,4-1.5,5.4s-2.4,2-4.1,2c-1.5,0-2.6-0.5-3.5-1.5v6.8h-3.9v-20.1h3.6l0.1,1.4
		c0.9-1.1,2.2-1.7,3.7-1.7c1.8,0,3.2,0.7,4.2,2c1,1.3,1.5,3.1,1.5,5.5V163.5z M211.5,163.2c0-1.4-0.2-2.4-0.7-3.1
		c-0.5-0.7-1.2-1.1-2.1-1.1c-1.2,0-2,0.5-2.5,1.4v5.9c0.5,1,1.3,1.4,2.5,1.4C210.6,167.8,211.5,166.2,211.5,163.2z"/>
	<path class="st0" d="M222.4,152.6v3.6h2.5v2.8h-2.5v7.2c0,0.5,0.1,0.9,0.3,1.2c0.2,0.2,0.6,0.3,1.2,0.3c0.4,0,0.8,0,1.1-0.1v2.9
		c-0.8,0.2-1.5,0.3-2.3,0.3c-2.7,0-4.1-1.4-4.2-4.1V159h-2.1v-2.8h2.1v-3.6H222.4z"/>
	<path class="st0" d="M230.8,157.7c1-1.2,2.3-1.8,3.9-1.8c3.1,0,4.7,1.8,4.8,5.5v9.3h-3.9v-9.2c0-0.8-0.2-1.4-0.5-1.8
		c-0.4-0.4-1-0.6-1.8-0.6c-1.1,0-2,0.4-2.5,1.3v10.3H227V150h3.9V157.7z"/>
</g>
</svg>
